<svg xmlns="http://www.w3.org/2000/svg" width="90" height="90" viewBox="0 0 90 90">
    <g fill="#B3B3B3">
        <path d="M36.314 55.944c-1.294 0-2.336-1.055-2.336-2.366 0-.434-.35-.788-.78-.788-.428 0-.778.354-.778.788 0 1.311-1.042 2.366-2.337 2.366-.429 0-.78.354-.78.788 0 .434.351.788.78.788 1.294 0 2.337 1.055 2.337 2.366 0 .434.35.789.779.789.428 0 .779-.355.779-.789 0-1.311 1.042-2.366 2.336-2.366.43 0 .78-.354.78-.788 0-.434-.35-.788-.78-.788zm-3.116 1.576c-.224-.295-.485-.56-.778-.788.293-.227.555-.493.779-.788.223.295.487.561.779.788-.293.228-.555.493-.78.788zm-3.154-44.946c-1.294 0-2.337-1.054-2.337-2.365 0-.434-.35-.79-.779-.79-.429 0-.779.356-.779.79 0 1.31-1.042 2.365-2.337 2.365-.428 0-.778.355-.778.79 0 .433.35.787.778.787 1.295 0 2.337 1.055 2.337 2.366 0 .434.35.789.78.789.428 0 .778-.355.778-.789 0-1.311 1.042-2.366 2.337-2.366.429 0 .779-.354.779-.788 0-.434-.35-.789-.779-.789zm-3.116 1.577c-.224-.295-.486-.56-.779-.788.293-.227.555-.493.78-.789.223.296.486.562.778.79-.293.227-.555.492-.779.787zm-3.992 16.57c-.233-.67-.755-1.199-1.421-1.44v-6.76l-8.569 2.897v5.44c-1.217.444-1.84 1.804-1.402 3.027.328.925 1.2 1.547 2.181 1.557 1.295-.01 2.327-1.074 2.318-2.386-.01-.985-.623-1.872-1.539-2.207v-1.154l5.453-1.833v1.41c-1.217.433-1.85 1.783-1.422 3.015.201.589.63 1.072 1.19 1.342.56.27 1.204.306 1.79.097.587-.21 1.067-.644 1.333-1.208.267-.564.298-1.21.088-1.798zm-9.21 3.144c-.43 0-.78-.355-.78-.789 0-.433.351-.789.78-.789.428 0 .778.356.778.79 0 .433-.35.788-.779.788zm.778-5.826v-1.488l5.453-1.833v1.488l-5.453 1.833zm6.232 4.248c-.43 0-.78-.354-.78-.788 0-.433.352-.789.78-.789.428 0 .779.356.779.79 0 .433-.35.787-.78.787zm20.213-13.592c-5.725 0-10.36 4.692-10.36 10.487 0 .366 0 .7.059 1.075l-17.585 19.91 1.383 1.4-2.766 2.799 1.724 1.745-3.32 3.351.983.996 3.31-3.361 1.724 1.744 2.765-2.799 1.383 1.4 19.103-17.9c.526.089 1.061.128 1.597.128 5.725 0 10.36-4.692 10.36-10.488 0-5.795-4.635-10.487-10.36-10.487zM16.081 56.87L13.6 54.356l1.791-1.813 2.483 2.514-1.792 1.813zm4.138-1.39l-5.267-5.322 13.086-14.864 6.6 6.683-14.42 13.503h.001zm15.463-14.41l-6.699-6.782 1.986-2.306c.925 3.361 3.447 6.042 6.718 7.156l-2.005 1.932zm5.267-2.8c-4.956 0-8.977-4.07-8.977-9.088 0-5.016 4.02-9.087 8.977-9.087 4.956 0 8.978 4.07 8.978 9.087 0 5.018-4.022 9.088-8.978 9.088z" transform="translate(10 11)"/>
        <path d="M42.468 21.643l-.272 1.37c.427.09.844.223 1.246.394l.555-1.282c-.493-.21-1.005-.37-1.529-.482zm-9.113 7.54h1.382c0-3.48 2.785-6.298 6.222-6.298v-1.4c-4.207 0-7.604 3.45-7.604 7.697zm30.924 6.259c0-.484.392-.876.876-.876s.876.392.876.876c0 18.273-14.634 33.088-32.697 33.088-4.83.005-9.6-1.075-13.958-3.16-1.296-.619-2.55-1.323-3.752-2.107-.263-.17-.415-.468-.398-.781.016-.313.198-.593.477-.735.279-.142.612-.125.875.046 1.139.742 2.326 1.409 3.553 1.994 4.122 1.974 8.634 2.995 13.204 2.99 17.088 0 30.943-14.026 30.943-31.335zM8.957 54.759c.19.248.235.579.116.868-.12.29-.384.493-.695.535-.31.041-.619-.086-.81-.334-1.308-1.697-2.453-3.514-3.42-5.426C1.827 45.758.622 40.635.63 35.442c0-18.273 14.635-33.088 32.696-33.088.484 0 .877.392.877.876s-.393.877-.877.877c-17.088 0-30.943 14.025-30.943 31.334 0 4.994 1.152 9.818 3.333 14.174.917 1.813 2.003 3.535 3.243 5.144h-.001zm31.457-43.237c-.304-.076-.543-.309-.629-.61-.086-.301-.004-.625.214-.85.218-.224.539-.316.843-.24 9.6 2.417 17.189 10.01 19.652 19.727.118.47-.165.946-.635 1.065-.469.119-.945-.165-1.064-.634-2.305-9.094-9.407-16.199-18.38-18.458zm2.203-9.152c-.477-.079-.8-.53-.722-1.008.08-.477.53-.8 1.008-.721C55.682 2.748 66.06 12.378 69.276 25.014c.077.304-.013.625-.238.844-.224.218-.548.3-.85.216-.3-.085-.534-.324-.61-.628C64.531 13.481 54.705 4.363 42.617 2.37z" transform="translate(10 11)"/>
    </g>
</svg>
