<svg xmlns="http://www.w3.org/2000/svg" width="90" height="90" viewBox="0 0 90 90">
    <path fill="#B3B3B3" d="M77.02 5.244c-1.865-1.294-4.252-1.6-6.386-.818L35.549 17.28c-2.724.998-4.555 3.609-4.555 6.495v39.278c-2.002-1.414-4.57-1.97-7.387-1.57-3.178.45-6.322 2.085-8.852 4.602-2.53 2.516-4.174 5.643-4.628 8.803-.482 3.36.416 6.369 2.53 8.47C14.396 85.09 16.753 86 19.418 86c.571 0 1.158-.042 1.754-.127 3.178-.451 6.322-2.086 8.852-4.602 2.53-2.517 4.174-5.643 4.628-8.803.072-.501.11-.993.12-1.477.002-.03.005-34.059.005-34.059l41.439-15.181v24.734c-2.002-1.413-4.57-1.97-7.388-1.57-3.178.45-6.321 2.085-8.852 4.602-2.53 2.516-4.174 5.642-4.628 8.803-.482 3.36.416 6.369 2.53 8.47 1.74 1.731 4.097 2.642 6.762 2.642.572 0 1.158-.042 1.755-.126 3.177-.452 6.321-2.087 8.851-4.603 2.53-2.516 4.174-5.643 4.628-8.803.072-.5.125-44.979.125-44.979 0-2.261-1.114-4.384-2.98-5.677zM30.995 70.782c-.002.374-.03.759-.087 1.154-.339 2.36-1.602 4.73-3.557 6.675-1.956 1.944-4.34 3.2-6.712 3.538-2.17.308-4.056-.207-5.307-1.45-1.25-1.245-1.768-3.12-1.458-5.279.339-2.36 1.602-4.73 3.558-6.674 1.955-1.945 4.338-3.201 6.711-3.539.411-.058.812-.087 1.2-.087 1.662 0 3.093.53 4.107 1.538 1.01 1.004 1.541 2.42 1.545 4.064v.06zm45.222-53.04l-41.438 15.18v-9.146c0-1.318.835-2.509 2.078-2.964L71.942 7.957c.988-.362 2.05-.226 2.915.373.864.6 1.36 1.544 1.36 2.592v6.82zm0 36.469c-.002.375-.03.76-.087 1.157-.339 2.36-1.602 4.73-3.557 6.675-1.955 1.944-4.339 3.2-6.712 3.538-2.171.309-4.056-.207-5.307-1.45-1.25-1.244-1.768-3.119-1.458-5.278.339-2.36 1.602-4.73 3.558-6.675 1.955-1.944 4.338-3.2 6.711-3.538.411-.058.812-.087 1.2-.087 1.662 0 3.093.53 4.107 1.538 1.01 1.004 1.542 2.42 1.546 4.067v.053z"/>
</svg>
