<svg xmlns="http://www.w3.org/2000/svg" width="24" height="24" viewBox="0 0 24 24">
    <defs>
        <linearGradient id="87qbcdo31a" x1="0%" x2="0%" y1="0%" y2="100%">
            <stop offset="0%" stop-color="#4D80FF"/>
            <stop offset="100%" stop-color="#2564FF"/>
        </linearGradient>
        <linearGradient id="1a6v5u6z2b" x1="50.149%" x2="50.149%" y1="52.273%" y2="100%">
            <stop offset="0%" stop-color="#FFF"/>
            <stop offset="100%" stop-color="#FFF" stop-opacity=".9"/>
        </linearGradient>
    </defs>
    <g fill="none" fill-rule="evenodd">
        <g>
            <g>
                <path fill="url(#87qbcdo31a)" d="M.516 7.143c.812-3.928 3.31-6.115 7.207-6.776 2.88-.489 5.762-.495 8.637.014 4.012.709 6.424 3.024 7.192 7.011.594 3.082.603 6.196-.009 9.274-.821 3.9-3.384 6.309-7.266 6.967-2.88.489-5.762.495-8.637-.014-4.012-.709-6.435-3.14-7.203-7.127-.624-3.102-.564-6.235.08-9.349z" transform="translate(-21 -501) translate(21 501)"/>
                <path fill="url(#1a6v5u6z2b)" d="M20.186 10.97c-.391-.257-.802-.487-1.228-.688l-.041-.02-.158-.059-.039-.011c-.147-.044-.302-.067-.46-.067-.858 0-1.61.683-1.61 1.595v2.19c-.172-.023-.347-.035-.525-.035-2.04 0-3.75 1.613-3.75 3.673 0 1.012.413 1.917 1.075 2.575-.47.083-.955.127-1.45.127-4.556 0-8.25-3.694-8.25-8.25S7.444 3.75 12 3.75c4.208 0 7.68 3.15 8.186 7.22zm-2.716 7.206c-.312.277-.645.53-.997.757-.11.025-.227.038-.348.038-.86 0-1.5-.668-1.5-1.423s.64-1.423 1.5-1.423c.367 0 .698.124.955.326l.539.423v.536l.003.04c.002.032.003.065.003.098 0 .222-.055.436-.155.628zM12 14.252c-1.244 0-2.252-1.008-2.252-2.252 0-1.244 1.008-2.252 2.252-2.252 1.244 0 2.252 1.008 2.252 2.252 0 1.244-1.008 2.252-2.252 2.252z" transform="translate(-21 -501) translate(21 501)"/>
                <path fill="#FFF" d="M18.4 11.27c-.044-.013-.091-.02-.14-.02-.268 0-.485.21-.485.47v3.846c-.45-.354-1.025-.566-1.65-.566-1.45 0-2.625 1.14-2.625 2.548 0 1.407 1.175 2.548 2.625 2.548s2.625-1.14 2.625-2.548c0-.06-.002-.119-.006-.177l.001-4.858c.452.27.875.586 1.263.94.096.088.19.178.282.271.185.188.491.194.684.014.193-.18.2-.477.015-.664-.104-.106-.21-.207-.317-.305-.65-.594-1.39-1.09-2.194-1.47l-.077-.029z" transform="translate(-21 -501) translate(21 501)"/>
            </g>
        </g>
    </g>
</svg>
