<svg xmlns="http://www.w3.org/2000/svg" width="90" height="90" viewBox="0 0 90 90">
    <g fill="#B3B3B3">
        <path d="M44.096 26.973L30.821 18.45c-.372-.238-.843-.253-1.23-.04-.385.214-.625.623-.625 1.067v17.044c0 .444.24.853.626 1.067.18.1.38.15.58.15.226 0 .452-.064.649-.19l13.275-8.522c.348-.224.56-.61.56-1.027 0-.416-.212-.803-.56-1.027zM31.38 34.305v-12.61L41.2 28l-9.82 6.305z" transform="translate(10 17)"/>
        <path d="M68.793 0H1.206C.542 0 0 .544 0 1.217v53.566C0 55.456.54 56 1.207 56h67.587c.665 0 1.206-.544 1.206-1.217V1.217C70 .544 69.46 0 68.793 0zM12.07 26.783H2.414V15.826h9.655v10.957zm-9.655 2.434h9.655v10.957H2.414V29.217zm12.069 12.174V2.435h41.034V53.565H14.483V41.391zm53.103-14.608h-9.655V15.826h9.655v10.957zm-9.655 2.434h9.655v10.957h-9.655V29.217zm9.655-26.782V13.39h-9.655V2.435h9.655zm-65.172 0h9.655V13.39H2.414V2.435zm0 51.13V42.61h9.655v10.956H2.414zm65.172 0h-9.655V42.61h9.655v10.956z" transform="translate(10 17)"/>
    </g>
</svg>
